<svg t="1653896110680" class="icon" viewBox="0 0 1024 1024" version="1.1" xmlns="http://www.w3.org/2000/svg" p-id="1300" width="200" height="200"><path d="M764.032 255.04a355.072 355.072 0 0 1 86.976 148.992H960v192h-108.992a355.072 355.072 0 0 1-87.04 148.928l55.04 95.04-166.016 96-55.04-95.04c-57.28 14.72-114.624 14.72-171.968 0l-55.04 95.04-165.952-96 54.976-95.04a355.072 355.072 0 0 1-87.04-148.992H64v-192h108.992a355.072 355.072 0 0 1 86.976-148.992L204.928 160 371.072 64l54.976 95.04a341.44 341.44 0 0 1 172.032 0L652.992 64l166.016 96-55.04 95.04zM704 500.032c-1.344-54.72-20.032-100.032-56-136-35.968-36.032-81.28-54.656-136-56-54.656 1.28-100.032 19.968-136 56-35.968 35.968-54.656 81.28-56 136 1.344 54.656 20.032 99.968 56 136 35.968 35.968 81.28 54.592 136 55.936 54.656-1.28 100.032-19.968 136-55.936 35.968-36.032 54.656-81.344 56-136.064z" p-id="1301"></path></svg>